<svg width="18" height="18" viewBox="0 0 18 18" fill="none" xmlns="http://www.w3.org/2000/svg">
<path d="M12.5 11.2903H11.71L11.43 11.0174C12.41 9.86514 13 8.36923 13 6.74192C13 3.11332 10.09 0.172028 6.5 0.172028C2.91 0.172028 0 3.11332 0 6.74192C0 10.3705 2.91 13.3118 6.5 13.3118C8.11 13.3118 9.59 12.7155 10.73 11.7249L11 12.0079V12.8064L16 17.8501L17.49 16.3441L12.5 11.2903ZM6.5 11.2903C4.01 11.2903 2 9.25869 2 6.74192C2 4.22515 4.01 2.19353 6.5 2.19353C8.99 2.19353 11 4.22515 11 6.74192C11 9.25869 8.99 11.2903 6.5 11.2903Z" fill="black" fill-opacity="0.38"/>
</svg>
